<?xml version="1.0" encoding="UTF-8" standalone="no"?>
<!-- Created with Inkscape (http://www.inkscape.org/) -->

<svg
   version="1.1"
   id="svg9"
   width="8000"
   height="4500"
   viewBox="0 0 8000 4500"
   sodipodi:docname="BossTriggers.svg"
   inkscape:version="1.2.2 (732a01da63, 2022-12-09)"
   xmlns:inkscape="http://www.inkscape.org/namespaces/inkscape"
   xmlns:sodipodi="http://sodipodi.sourceforge.net/DTD/sodipodi-0.dtd"
   xmlns:xlink="http://www.w3.org/1999/xlink"
   xmlns="http://www.w3.org/2000/svg"
   xmlns:svg="http://www.w3.org/2000/svg">
  <sodipodi:namedview
     id="namedview181"
     pagecolor="#ffffff"
     bordercolor="#000000"
     borderopacity="0.25"
     inkscape:showpageshadow="2"
     inkscape:pageopacity="0.0"
     inkscape:pagecheckerboard="0"
     inkscape:deskcolor="#d1d1d1"
     showgrid="false"
     inkscape:zoom="0.5"
     inkscape:cx="4303"
     inkscape:cy="2920"
     inkscape:window-width="1920"
     inkscape:window-height="1017"
     inkscape:window-x="-8"
     inkscape:window-y="-8"
     inkscape:window-maximized="1"
     inkscape:current-layer="svg9" />
  <defs
     id="defs13" />
  <g
     id="g15">
    <image
       width="8000"
       height="4500"
       preserveAspectRatio="none"
       xlink:href="../../black_white%20%5BRecovered%5D.png"
       id="image17" />
  </g>
  <path
     id="rect410"
     style="opacity:0.33"
     d="m 4620,4050 h 400 v -150 h 28.8312 L 5050,4080 h -460 v -180 h 30 z"
     sodipodi:nodetypes="ccccccccc" />
  <path
     id="rect410-8"
     style="opacity:0.33"
     d="M 879.99999,3235 H 1385 l 0.5844,-135 h 28.8312 L 1415,3265 v 535 h -30 V 3675 H 900 v 125 h -50 v -150 h 535 V 3265 H 849.99999 v -165 h 30 z"
     sodipodi:nodetypes="cccccccccccccccccc" />
  <path
     id="rect410-8-8"
     style="opacity:0.33"
     d="m 2986.5521,1314.6458 h 505 l 0.5844,-135 h 28.8312 l 0.5844,165 v 359.7934 h -30 v -125 h -485 v 125 h -50 v -150 h 535 v -209.7934 h -535 v -165 h 30 z"
     sodipodi:nodetypes="cccccccccccccccccc" />
  <path
     id="rect410-8-8-2"
     style="opacity:0.33"
     d="m 739.5,488.6033 h 505 l 0.5844,-135 h 28.8312 l 0.5844,165 v 359.7934 h -30 v -125 h -485 v 125 h -50 v -150 h 535 V 518.6033 h -535 v -165 h 30 z"
     sodipodi:nodetypes="cccccccccccccccccc" />
  <path
     id="rect410-8-8-2-3"
     style="opacity:0.33"
     d="m 6331.5,1808.6033 h 505 l 0.5844,-135 h 28.8312 l 0.5844,165 v 399.7934 h -30 v -125 h -485 v 125 h -50 l 0,-268 535,118 v -249.7934 l -535,166 0,-331 h 30 z"
     sodipodi:nodetypes="cccccccccccccccccc" />
  <path
     id="rect410-8-8-2-9"
     style="opacity:0.33"
     d="m 6672.0968,4118.45 923,-124 0.5844,-133 h 28.8312 l 0.5844,163 v 361.7934 h -30 v -113 l -921,-88 -14,201 h -50 l 40,-234 945,96 V 4024.45 l -949,132 -36,-295 h 30 z"
     sodipodi:nodetypes="cccccccccccccccccc" />
  <path
     id="rect410-8-8-2-39"
     style="opacity:0.33"
     d="m 4065.5,2886.6033 475,-16 0.5844,-135 h 28.8312 l 0.5844,165 v 359.7934 h -30 v -125 l -473,-54 -100,37 -6,-42 88,-106 491,140 v -209.7934 l -495,92 -92,-223 48,-28 z"
     sodipodi:nodetypes="cccccccccccccccccc" />
</svg>
