<?xml version="1.0" encoding="UTF-8" standalone="no"?>
<!-- Created with Inkscape (http://www.inkscape.org/) -->

<svg
   version="1.1"
   id="svg9"
   width="8000"
   height="4500"
   viewBox="0 0 8000 4500"
   sodipodi:docname="Enemies.svg"
   inkscape:version="1.2.2 (732a01da63, 2022-12-09)"
   xmlns:inkscape="http://www.inkscape.org/namespaces/inkscape"
   xmlns:sodipodi="http://sodipodi.sourceforge.net/DTD/sodipodi-0.dtd"
   xmlns:xlink="http://www.w3.org/1999/xlink"
   xmlns="http://www.w3.org/2000/svg"
   xmlns:svg="http://www.w3.org/2000/svg">
  <sodipodi:namedview
     id="namedview181"
     pagecolor="#ffffff"
     bordercolor="#000000"
     borderopacity="0.25"
     inkscape:showpageshadow="2"
     inkscape:pageopacity="0.0"
     inkscape:pagecheckerboard="0"
     inkscape:deskcolor="#d1d1d1"
     showgrid="false"
     inkscape:zoom="0.3025"
     inkscape:cx="4527.2727"
     inkscape:cy="2472.7273"
     inkscape:window-width="2560"
     inkscape:window-height="1377"
     inkscape:window-x="1912"
     inkscape:window-y="-8"
     inkscape:window-maximized="1"
     inkscape:current-layer="svg9" />
  <defs
     id="defs13" />
  <g
     id="g15">
    <image
       width="8000"
       height="4500"
       preserveAspectRatio="none"
       xlink:href="../../black_white%20%5BRecovered%5D.png"
       id="image17" />
  </g>
  <path
     id="rect410"
     style="opacity:0.33"
     d="m 3665.2894,3385.1238 25.6198,-13.2231 38.0165,-2.4793 47.9339,2.4794 42.2521,-2.6344 38.9462,9.7625 10.0207,30.4235 171.1777,420.5062 -31.3017,14.721 -24.69,13.0683 -576.7562,-286.1054 1.7561,-28.2542 8.3678,-15.8574 6.7149,-18.3368 268.6985,-356.3533 h 25.9986 25.9986 25.9986 l -110.6406,259.7107 z m -228.4093,-836.3997 12.7754,67.7686 73.9325,29.7521 -0.4477,-74.3802 m -941.7009,314.9122 12.7754,67.7686 73.9325,29.7521 -0.4477,-74.3802 m 277.3762,251.2397 12.7754,67.7686 73.9325,29.7521 -0.4477,-74.3802 m -235.0206,-552.0661 12.7754,67.7686 73.9325,29.7521 -0.4477,-74.3802 m 912.0869,-251.2397 12.7754,67.7686 73.9325,29.7521 -0.4477,-74.3802 m -1220.1444,1193.3884 12.7754,67.7686 73.9325,29.7521 -0.4477,-74.3802"
     sodipodi:nodetypes="cccccccccccccccccccccccccccccccccccccccccccc" />
</svg>
